<svg width="467" height="212" viewBox="0 0 467 212" fill="none" xmlns="http://www.w3.org/2000/svg">
<path fill-rule="evenodd" clip-rule="evenodd" d="M465.268 152.14C464.732 151.713 464.109 151.589 463.607 151.589C462.612 151.589 461.582 152.057 460.822 152.82L460.689 152.949L460.595 153.103C450.206 169.427 441.494 180.32 433.877 187.117C426.272 193.904 419.89 196.496 414.112 196.496C410.848 196.496 408.976 195.553 407.864 194.191C406.696 192.761 406.099 190.551 406.099 187.489C406.099 182.692 407.511 177.016 409.745 171.08C411.891 165.377 414.756 159.535 417.717 154.159C428.868 150.854 441.924 144.896 450.442 137.379L450.455 137.369L450.467 137.358C453.51 134.566 456.102 131.663 457.943 128.738C459.78 125.819 460.93 122.782 460.93 119.758C460.93 117.478 460.286 115.095 458.544 113.275C456.788 111.437 454.132 110.404 450.583 110.404C443.554 110.404 434.611 113.75 426.006 119.425C417.361 125.124 408.87 133.293 402.775 143.197C400.626 146.668 398.851 150.198 397.434 153.742C387.419 168.704 378.861 179.432 371.154 186.413C363.423 193.415 356.714 196.495 350.388 196.495C347.438 196.495 345.602 195.533 344.458 194.108C343.263 192.621 342.622 190.382 342.622 187.489C342.622 181.864 344.508 175.097 347.637 167.767C350.755 160.462 355.049 152.726 359.738 145.199C365.047 136.68 370.319 129.334 375.089 124.139C377.475 121.539 379.696 119.523 381.694 118.168C383.717 116.796 385.354 116.21 386.61 116.21C387.938 116.21 389.119 116.977 390.368 118.754C391.629 120.548 392.703 123.011 393.893 125.763L395.613 129.732L403.392 115.588L402.262 114.719C398.704 111.982 393.867 110.404 388.347 110.404C369.457 110.404 350.889 124.55 340.541 141.21L340.539 141.212C338.072 145.198 335.911 149.208 334.178 153.346L326.155 165.746L326.152 165.749C320.3 174.84 315.228 182.652 310.22 188.206C305.201 193.773 300.533 196.743 295.545 196.743C293.465 196.743 292.049 196.197 291.17 195.404C290.314 194.632 289.765 193.443 289.765 191.707C289.765 189.396 290.227 187.211 293.496 181.283C296.783 175.326 302.764 165.827 313.568 148.937L313.571 148.932L333.777 117.109L332.882 112.638H303.179L302.735 112.97C302.077 113.463 301.578 114.025 301.254 114.673C300.927 115.326 300.83 115.966 300.83 116.533V118.195H311.335L299.347 137.234C295.861 142.796 292.764 147.899 290.192 152.825L290.182 152.832L283.326 162.99C276.358 173.317 270.416 182.007 264.752 188.128C259.064 194.274 253.962 197.488 248.729 197.488C246.899 197.488 245.675 197.005 244.923 196.313C244.19 195.641 243.692 194.576 243.692 192.947C243.692 191.032 244.446 188.613 246.663 184.787C248.871 180.976 252.414 175.96 257.747 168.891L265.437 158.72L265.438 158.719C275.477 145.417 278.426 137.626 278.426 127.697C278.426 122.879 277.739 118.613 275.9 115.501C273.978 112.248 270.88 110.404 266.592 110.404C260.89 110.404 254.682 113.313 248.182 118.304C241.649 123.321 234.624 130.594 227.255 139.675L227.08 139.891H224.837V126.953C224.837 122.216 223.953 118.541 221.707 116.067C219.424 113.552 216.069 112.638 212.01 112.638H202.899L202.412 113.124C201.724 113.812 201.063 114.817 200.734 116.129L200.218 118.195H211.018C214.131 118.195 215.662 118.751 216.435 119.427C217.14 120.044 217.543 121.058 217.543 122.983C217.543 124.845 216.862 127.181 215.412 130.203C213.971 133.205 211.848 136.729 209.126 140.936L209.121 140.943L171.527 200.316H192.817L214.404 167.046L215.636 165.075C226.02 149.749 235.741 137.518 244.367 129.138C248.682 124.945 252.685 121.753 256.323 119.618C259.973 117.476 263.151 116.458 265.848 116.458C267.484 116.458 268.21 116.842 268.549 117.181C268.885 117.517 269.148 118.117 269.148 119.262C269.148 120.944 268.444 123.186 266.691 126.329C264.953 129.446 262.283 133.277 258.576 138.096L258.575 138.098L250.388 148.766L250.385 148.769C239.881 162.525 234.91 173.552 234.91 184.512C234.91 188.488 235.543 192.972 237.542 196.523C239.607 200.191 243.111 202.797 248.481 202.797C255.986 202.797 262.87 197.813 269.265 190.9C273.83 185.966 278.316 179.859 282.769 173.403C282.248 176.418 281.974 179.521 281.974 182.775C281.974 186.572 282.408 191.286 284.284 195.107C285.234 197.042 286.579 198.797 288.467 200.065C290.365 201.34 292.711 202.053 295.545 202.053C302.598 202.053 308.78 197.571 314.405 191.355C319.71 185.492 324.796 177.769 329.888 169.906C329.713 171.677 329.622 173.484 329.622 175.332C329.622 182.389 331.286 189.068 334.653 194.035C338.057 199.057 343.197 202.301 349.892 202.301C357.268 202.301 364.535 199.066 372.292 192.521C378.817 187.017 385.777 179.097 393.548 168.573C393.246 170.935 393.098 173.275 393.098 175.581C393.098 182.531 394.832 189.147 398.23 194.077C401.658 199.051 406.791 202.301 413.368 202.301C420.852 202.301 428.546 199.011 437.044 191.495C445.528 183.993 454.93 172.181 465.882 154.885L466.139 154.478V153.996C466.139 153.288 465.852 152.607 465.268 152.14ZM438.289 124.26C441.035 121.41 443.614 119.25 445.97 117.812C448.339 116.368 450.377 115.714 452.072 115.714C453.493 115.714 454.231 116.112 454.639 116.548C455.063 117.006 455.372 117.78 455.372 119.014C455.372 120.805 454.613 122.971 453.059 125.407C451.613 127.671 449.545 130.059 447.004 132.44C446.837 132.598 446.665 132.756 446.494 132.914L446.485 132.92L446.489 132.916C440.091 138.696 430.586 143.831 421.518 147.339C427.301 137.583 433.032 129.723 438.289 124.26Z" fill="#F7F5ED"/>
<path fill-rule="evenodd" clip-rule="evenodd" d="M187.919 154.478V153.996C187.919 153.288 187.631 152.607 187.047 152.14C186.514 151.713 185.891 151.589 185.389 151.589C184.392 151.589 183.364 152.057 182.601 152.82L182.472 152.949L182.374 153.103C171.986 169.427 163.275 180.32 155.657 187.117C148.053 193.904 141.67 196.496 135.893 196.496C132.628 196.496 130.756 195.553 129.644 194.191C128.476 192.761 127.879 190.551 127.879 187.489C127.879 182.692 129.291 177.016 131.525 171.08C133.671 165.377 136.536 159.535 139.497 154.159C150.648 150.854 163.703 144.896 172.223 137.379L172.234 137.369L172.246 137.358C175.291 134.566 177.884 131.663 179.725 128.738C181.561 125.819 182.709 122.782 182.709 119.758C182.709 117.478 182.067 115.095 180.326 113.275C178.567 111.437 175.912 110.404 172.364 110.404C165.335 110.404 156.392 113.75 147.786 119.425C139.141 125.125 130.649 133.295 124.553 143.2C117.95 153.868 114.879 165.084 114.879 175.581C114.879 182.531 116.612 189.147 120.01 194.077C123.438 199.051 128.572 202.301 135.148 202.301C142.632 202.301 150.327 199.011 158.827 191.495C167.31 183.993 176.711 172.181 187.662 154.885L187.919 154.478ZM160.07 124.26C162.815 121.41 165.395 119.25 167.752 117.812C170.119 116.368 172.158 115.714 173.852 115.714C175.272 115.714 176.012 116.112 176.418 116.548C176.843 117.006 177.152 117.78 177.152 119.014C177.152 120.805 176.395 122.971 174.839 125.407C173.296 127.822 171.048 130.379 168.269 132.917C161.868 138.697 152.368 143.831 143.298 147.339C149.082 137.583 154.811 129.723 160.07 124.26Z" fill="#F7F5ED"/>
<path fill-rule="evenodd" clip-rule="evenodd" d="M133.572 100.717C135.965 97.2638 138.342 93.8321 140.714 90.4407C156.355 68.0712 171.181 46.8792 187.261 31.2586C203.316 15.6627 220.437 5.80557 240.641 5.80557C247.657 5.80557 254.916 7.0173 261.186 9.18752L262.732 9.72294L264.888 3.79563L263.194 3.29385C256.352 1.26674 248.502 0 240.641 0C218.918 0 200.561 10.5254 183.903 26.5468H67.2699L63.7863 32.3523H111.824C99.2618 38.3527 90.0162 48.4214 83.0906 59.2895C74.6934 72.4676 69.616 86.9652 66.1435 97.1347C62.4092 107.819 59.3401 117.665 56.5203 126.711L56.5177 126.72C50.4889 146.062 45.6282 161.62 37.8482 174.273C30.1269 186.831 19.4975 196.563 1.81478 204.071L0 204.841L4.15987 211.312L5.53488 210.51C11.3705 207.106 16.8917 204.738 23.4899 202.776C50.4138 194.768 71.9097 177.816 90.5587 157.341C106.359 139.994 120.198 120.019 133.572 100.717ZM37.5089 187.949C47.2683 179.283 55.1707 169.603 62.2539 157.545C70.0953 144.196 76.9322 127.933 84.172 106.903L84.1715 106.905L84.1724 106.902C86.0902 101.365 87.865 95.8374 89.5944 90.4501L89.5974 90.4411C94.7083 74.5218 99.3995 59.9508 106.287 49.3278C113.095 38.8292 121.936 32.3523 135.446 32.3523H178.168C163.589 47.7331 149.961 67.1733 135.916 87.2107L135.86 87.29C108.295 126.615 79.0834 168.208 37.5089 187.949Z" fill="#F7F5ED"/>
</svg>
